<svg viewBox="326.813 108.902 135.625 135.625" width="135.625" height="135.625" xmlns="http://www.w3.org/2000/svg">
  <defs></defs>
  <path d="M 335.832 108.902 C 333.44 108.902 331.147 109.852 329.456 111.542 C 327.764 113.233 326.814 115.526 326.813 117.917 L 326.813 244.527 L 439.029 244.527 C 442.826 244.527 446.468 243.018 449.154 240.333 L 458.244 231.243 C 459.574 229.913 460.629 228.335 461.348 226.597 C 462.068 224.86 462.438 222.998 462.438 221.118 L 462.438 108.902 L 335.832 108.902 Z M 348.788 126.339 L 415.366 126.339 L 371.26 170.446 C 370.164 171.539 368.68 172.154 367.132 172.155 C 366.026 172.155 364.943 171.841 364.009 171.25 C 363.074 170.658 362.327 169.814 361.854 168.814 L 344.766 132.686 C 344.446 132.008 344.302 131.26 344.348 130.512 C 344.394 129.764 344.629 129.039 345.03 128.406 C 345.432 127.773 345.987 127.251 346.644 126.89 C 347.301 126.528 348.038 126.339 348.788 126.339 Z M 344.251 227.089 L 344.251 184.174 C 344.251 183.074 344.689 182.02 345.466 181.243 C 346.244 180.466 347.298 180.03 348.397 180.03 L 391.31 180.03 L 344.251 227.089 Z M 402.251 169.092 C 400.288 171.052 397.628 172.154 394.854 172.155 L 380.644 172.155 L 423.397 129.405 C 424.369 128.433 425.522 127.662 426.791 127.136 C 428.06 126.61 429.42 126.339 430.794 126.339 L 445 126.339 L 402.251 169.092 Z" fill="#00F58C" transform="matrix(0.9999999999999999, 0, 0, 0.9999999999999999, -7.105427357601002e-15, 0)"></path>
</svg>